<?xml version="1.0" encoding="UTF-8" standalone="no"?>
<svg
   version="1.2"
   viewBox="0 0 755.90551 385.12954"
   width="755.90552"
   height="385.12955"
   id="svg24"
   sodipodi:docname="Angry Birds Mighty Eagle.svg"
   inkscape:version="1.4 (86a8ad7, 2024-10-11)"
   xmlns:inkscape="http://www.inkscape.org/namespaces/inkscape"
   xmlns:sodipodi="http://sodipodi.sourceforge.net/DTD/sodipodi-0.dtd"
   xmlns="http://www.w3.org/2000/svg"
   xmlns:svg="http://www.w3.org/2000/svg">
  <defs
     id="defs24" />
  <sodipodi:namedview
     id="namedview24"
     pagecolor="#ffffff"
     bordercolor="#999999"
     borderopacity="1"
     inkscape:showpageshadow="2"
     inkscape:pageopacity="0"
     inkscape:pagecheckerboard="0"
     inkscape:deskcolor="#d1d1d1"
     showgrid="false"
     inkscape:zoom="0.84072144"
     inkscape:cx="507.89712"
     inkscape:cy="213.5071"
     inkscape:window-width="1360"
     inkscape:window-height="697"
     inkscape:window-x="-8"
     inkscape:window-y="-8"
     inkscape:window-maximized="1"
     inkscape:current-layer="svg24" />
  <style
     id="style1">.a{fill-opacity:.6}.b{opacity:.1}.c{fill:#fff}.d{opacity:.3}.e{fill:#eca739}.f{fill:#ffc645}.g{fill:#a85493}.h{fill:#be5aa1}.i{fill:#4e3c33}.j{fill:#dadada}.k{fill:#fee58f}</style>
  <path
     fill-rule="evenodd"
     d="m 399.34179,47.908175 q -9.81703,3.878663 -21.80076,11.903483 -24.12796,15.808896 -35.20221,36.13844 L 333.53827,111.331 q -2.70169,3.87867 -4.46715,2.5412 -1.01648,-0.80249 -4.09266,-7.35609 -3.95891,-8.158566 -8.02482,-14.177181 -9.20179,-13.508447 -11.60924,-36.004693 -0.77573,-6.954844 -0.64198,-14.043435 l 0.13374,-5.617374 22.95099,-25.010689 q -4.19966,12.304724 -7.40959,28.220617 -6.23261,32.09928 -0.74898,50.583116 l 3.95891,0.401241 Q 323.07925,77.894253 325.11221,61.550369 329.31186,29.049848 342.07133,12.598967 358.38846,6.419856 378.69126,0 366.94827,13.936437 354.96454,32.393523 330.97033,69.307695 329.8201,92.472676 q 1.28397,1.069976 4.22641,0.802482 l 2.80868,-0.401241 q -0.40124,-5.082386 3.18318,-13.107206 7.00835,-16.210137 26.40166,-31.724789 7.14209,-0.802482 20.65054,-0.534988 z"
     id="path3"
     style="stroke-width:0.267494" />
  <path
     fill-rule="evenodd"
     d="m 98.330795,284.61362 q 10.459015,2.40744 15.701895,6.95484 l 2.03296,-2.94243 q 2.03295,-3.47743 1.65846,-6.01862 -24.876942,-17.8151 -73.855094,-18.61758 L 0,266.79852 28.193868,232.15804 q 23.218479,-3.07618 59.677911,18.72458 18.243091,10.83351 31.885281,22.3625 l 2.05971,-5.34988 Q 105.09839,245.1315 67.863228,226.80816 56.253988,221.05704 43.869016,216.50964 l -9.950777,-3.34367 38.144645,-10.45902 6.366357,4.57415 q 7.650328,5.88487 14.926165,12.83971 23.084734,22.06826 32.286524,45.87522 4.06591,10.45902 10.56601,22.49625 5.24289,9.49604 5.48363,11.50224 0.50824,3.34368 -5.48363,3.34368 l -22.17525,-2.2737 q -27.311135,-3.61117 -55.237509,10.69976 -13.909688,7.22234 -22.442746,15.11341 l 5.216133,-13.90969 q 6.018615,-15.3809 10.21827,-22.73699 25.89342,-10.56601 46.543957,-5.61737 z"
     id="path4"
     style="stroke-width:0.267494" />
  <path
     fill-rule="evenodd"
     d="m 324.47022,81.639169 q 19.90156,-3.477422 33.54375,0.802482 23.08473,7.356085 11.47549,29.156849 -5.85812,10.96725 -16.31713,20.46329 l 53.57905,54.06054 0.74898,16.31713 q 1.28397,18.21634 4.6009,28.24737 24.10121,10.16477 44.75174,24.4757 24.50245,17.14636 31.00256,37.60965 5.48362,17.78835 -3.04943,35.8442 -7.54333,15.80889 -23.86047,28.11362 -15.56815,11.63599 -31.75154,14.84592 -22.71024,5.48362 -55.10376,8.96104 l -71.55465,4.41366 q -89.022,1.33747 -148.08467,-16.04964 -35.06847,-12.83972 -44.00277,-39.88336 -7.65033,-23.40572 4.6009,-56.44123 10.19152,-27.84613 33.67749,-60.34665 19.25957,-26.9099 43.60153,-51.78684 41.59531,-42.55829 90.17222,-65.02779 22.5765,-10.432266 41.96981,-13.775941 z"
     id="path5"
     style="stroke-width:0.267494" />
  <path
     fill-rule="evenodd"
     class="c"
     d="m 324.09573,89.797736 q 19.39332,-3.611169 32.52727,0.401241 22.17525,7.088591 10.69976,26.883143 -3.69142,6.15237 -10.19152,12.83972 l -5.75112,5.48362 55.8795,67.86323 -0.77574,1.87246 q -0.77573,2.67494 -1.15022,5.88487 -1.28397,10.03102 2.1667,22.06825 22.71024,9.49604 41.46157,22.87074 23.83372,16.47763 30.97581,35.33596 6.25935,16.31713 -0.50824,32.76801 -5.99187,14.47143 -20.51679,25.83992 -13.66895,10.69976 -29.21035,14.97967 -22.33575,6.82109 -55.23751,10.56601 l -69.62869,3.74491 q -83.03013,0 -142.7348,-17.6546 -63.770565,-23.27198 -39.66936,-89.36974 9.44254,-25.70618 31.5108,-55.933 17.97559,-24.6362 41.59531,-48.8444 40.55209,-41.22083 87.60429,-63.55658 22.06825,-10.432265 40.95333,-14.043434 z"
     id="path6"
     style="stroke-width:0.267494" />
  <path
     fill-rule="evenodd"
     class="d"
     d="m 403.3542,216.67014 4.3869,18.00235 -14.36442,-2.24695 q -16.29039,-2.3272 -25.73293,-2.75519 l -27.01689,1.04323 q -17.46736,2.13995 -36.45943,8.29231 -8.66681,-13.77594 -24.18146,-19.25957 -13.85619,-4.89514 -30.65481,-2.46094 -15.72865,2.30044 -29.26385,10.29852 -13.64219,8.07831 -19.95505,18.99207 4.14616,-42.02331 21.56002,-47.69418 5.40338,-1.79221 11.52899,0.29424 3.04943,0.98973 5.02889,2.40745 z"
     id="path7"
     style="stroke-width:0.267494" />
  <path
     fill-rule="evenodd"
     d="m 354.5633,175.42257 24.3687,-1.87246 q 28.83585,-1.60497 51.2786,-0.80248 72.19663,2.54119 54.32803,28.08687 -23.96746,29.45108 -105.74038,22.76373 -25.11768,-2.0062 -60.45364,-8.02482 l -39.66936,-6.41985 q -19.50031,-3.61117 -41.32782,3.20993 -21.42627,6.68735 -33.54375,20.06205 -3.31693,1.73871 1.28397,-9.62979 l 5.24288,-11.63599 20.27605,-11.52899 13.50844,-2.67494 22.20201,-10.03102 z"
     id="path8"
     style="stroke-width:0.267494" />
  <path
     fill-rule="evenodd"
     class="e"
     d="m 442.46183,173.95135 2.03295,-0.66874 5.72437,0.53499 q 5.75112,2.00621 14.17718,8.69356 l 13.6422,12.43847 -2.1667,3.74491 q -17.73486,25.43868 -97.44807,19.95506 -26.40166,-1.73872 -58.66143,-6.95485 l -37.26192,-6.68735 q -19.50031,-3.63792 -35.5767,0.13375 -16.07639,3.74491 -31.51079,15.6484 -3.31693,1.60496 -2.80869,-4.01241 l 1.04323,-6.01862 16.04964,-9.12154 6.7676,-1.73871 q 14.41792,-3.47743 32.52727,-3.07618 l 34.56022,3.07618 36.99442,5.37663 39.53562,3.34367 q 33.27625,0.80248 47.45343,-14.07018 3.55767,-3.74492 8.15857,-11.90349 3.95891,-6.82109 6.7676,-8.69355 z"
     id="path9"
     style="stroke-width:0.267494" />
  <path
     fill-rule="evenodd"
     class="f"
     d="m 377.13979,175.28882 48.09542,-1.47122 q 64.9208,1.47122 51.14486,24.7432 l 1.01647,-1.87246 -13.77594,-12.57222 q -8.29231,-6.5536 -14.15043,-8.55981 l -5.75112,-0.66873 -1.89921,0.80248 q -2.80869,1.87246 -6.7676,8.69355 -4.70789,8.02482 -8.29231,11.76974 -14.01669,15.00641 -47.45344,14.07018 l -39.40186,-3.34367 -36.99442,-5.24288 -34.56023,-3.20993 q -18.10934,-0.26749 -32.52727,3.20993 l -6.74085,1.63171 -0.77573,0.40124 4.6009,-2.56794 13.24095,-2.67494 21.69376,-9.76353 86.61456,-11.3685 z"
     id="path10"
     style="stroke-width:0.267494" />
  <path
     fill-rule="evenodd"
     class="g"
     d="m 284.93461,99.695014 q 4.09266,-0.401241 7.65033,1.471216 l 3.18318,-0.66873 6.12561,-0.936233 q 8.80055,0 8.9343,9.629783 0.13375,12.03723 -7.51658,22.202 -8.05157,10.72651 -18.00235,9.65654 -11.101,-1.33747 -15.5414,-9.52279 -4.6009,-8.8273 1.52472,-20.73079 5.48362,-10.56601 13.64219,-11.100996 z"
     id="path11"
     style="stroke-width:0.267494" />
  <path
     fill-rule="evenodd"
     class="h"
     d="m 289.6425,99.42752 q 2.56795,0.267494 4.6009,2.2737 l 3.04943,-0.66874 5.75112,-0.80248 q 8.15857,0.13375 8.15857,8.42606 0.26749,10.43227 -6.8746,18.85833 -7.40958,8.8273 -16.85212,7.75733 -9.54953,-0.93623 -11.84998,-8.96105 -2.1667,-7.89108 3.82516,-18.05585 5.10914,-9.094794 10.19152,-8.8273 z"
     id="path12"
     style="stroke-width:0.267494" />
  <path
     fill-rule="evenodd"
     d="m 414.00046,236.57169 q -9.54953,-3.47742 -28.94285,-4.54739 -19.90155,-1.06998 -41.70231,0.93622 -54.22104,4.8149 -77.94775,22.60325 8.69355,-8.29232 26.29466,-15.11341 16.95912,-6.55361 38.01089,-10.16478 21.53327,-3.74491 41.83607,-3.34367 21.66701,0.26749 37.36891,5.21613 9.0413,4.01241 9.41579,5.08239 0.26749,0.93623 -4.33341,-0.66874 z"
     id="path13"
     style="stroke-width:0.267494" />
  <path
     fill-rule="evenodd"
     class="i"
     d="m 443.71905,255.43002 8.6668,2.80869 q 42.23731,31.32355 26.8029,67.30149 -6.25936,14.20393 -20.54354,25.57242 -13.40145,10.56602 -28.7021,14.71217 -47.42669,14.44468 -125.74893,14.71217 -83.80587,0.13375 -143.35004,-17.38711 -42.61179,-15.51465 -45.66122,-52.58932 -2.4342,-30.76181 22.0415,-71.84888 0.53499,7.62357 -0.107,17.52085 l -0.77573,8.29232 2.54119,-1.33747 6.39311,-2.00621 q 10.19152,-2.13995 15.94264,4.68115 2.67494,3.37042 4.33341,15.67515 l 1.01647,11.63598 3.31693,-2.94243 7.14209,-5.21613 q 10.59276,-5.75112 11.47549,5.61737 10.59276,-6.01861 20.40979,7.48983 4.84165,6.68735 7.65033,14.57843 1.41772,-6.28611 4.97539,-12.83972 6.90135,-13.1072 16.85212,-14.17718 7.14209,-0.66873 12.49197,9.36229 2.67494,5.08239 3.95891,10.29852 10.83351,-3.87866 13.26771,-5.75112 l 15.03316,-10.16477 -0.88273,10.03102 -1.41772,18.85833 q 4.86839,-2.54119 12.89321,-12.97346 l 7.00834,-10.16477 1.01648,5.08239 2.4342,13.3747 q 16.07639,-2.94244 29.34409,-18.59084 6.63385,-7.75732 10.05777,-14.97966 l -0.74898,15.11341 q 0.107,16.98587 4.19966,25.94692 11.98373,-8.02482 17.33361,-26.48191 1.65846,-5.75112 2.43419,-11.76973 l 0.50824,-4.94864 6.50011,28.08687 26.02716,-8.96105 -1.89921,-10.16477 q -2.56794,-12.17098 -6.25936,-22.22876 6.8746,4.03916 17.22662,20.22255 l 8.80055,15.38091 q 4.57415,-3.74492 7.24909,-11.50225 5.37663,-15.51465 -4.06591,-35.33595 9.81703,2.94243 19.90155,15.40765 7.89108,9.76353 12.35823,19.9283 1.65846,-13.24095 -5.21614,-24.90369 l -4.86839,-6.68735 -2.2737,-2.2737 z"
     id="path14"
     style="stroke-width:0.267494" />
  <path
     fill-rule="evenodd"
     d="m 290.28449,100.89874 4.73464,-2.273702 q 5.59063,-2.541193 9.68329,-3.477422 13.13395,-2.67494 6.63385,12.839714 -3.69142,8.69355 -11.23475,12.97346 -6.63385,3.87866 -14.01669,3.07618 -7.14209,-0.53499 -10.96725,-4.94864 -4.09266,-4.68115 -1.92596,-11.3685 -0.64198,-9.094792 8.15857,-8.827298 z"
     id="path15"
     style="stroke-width:0.267494" />
  <path
     fill-rule="evenodd"
     class="c"
     d="m 283.1424,100.4975 7.91782,1.60496 4.06591,-1.87246 q 4.97539,-2.13995 8.55981,-2.674938 11.60924,-2.273699 5.85812,10.298518 -3.31693,7.08859 -9.95078,10.56601 -5.85812,3.07618 -12.35822,2.5412 -6.25936,-0.53499 -9.57629,-4.01241 -3.69141,-3.87867 -1.79221,-9.36229 -0.50824,-7.22234 7.27584,-7.08859 z"
     id="path16"
     style="stroke-width:0.267494" />
  <path
     fill-rule="evenodd"
     d="m 285.17535,108.78981 q -0.10699,-2.54119 2.19345,-2.40745 l 2.5412,0.53499 3.82516,-1.60496 q 3.55767,-0.66874 1.79221,3.47742 -2.0597,4.81489 -6.7676,4.41365 -1.92595,-0.13375 -2.94243,-1.33747 -1.15022,-1.33747 -0.64199,-3.07618 z"
     id="path17"
     style="stroke-width:0.267494" />
  <path
     fill-rule="evenodd"
     class="j"
     d="m 288.25153,121.09453 q -6.63385,-0.26749 -10.32526,-3.87866 -3.95891,-3.87866 -2.05971,-9.62978 -0.37449,-5.21614 3.45068,-6.55361 2.30044,2.00621 2.30044,6.01862 0,5.48363 1.01648,8.15857 1.52472,3.47742 5.61737,5.88486 z"
     id="path18"
     style="stroke-width:0.267494" />
  <path
     fill-rule="evenodd"
     d="m 269.23271,83.645374 q 17.8686,3.209928 28.32762,10.164772 -5.21614,-6.018615 -13.90969,-11.903483 l -7.51658,-4.814892 15.56815,2.139952 5.21613,3.477422 11.101,8.292314 q 15.94264,12.705961 13.6422,17.788351 l -9.54954,-0.40124 q -12.51872,-0.93623 -23.35223,-0.13375 -38.01089,2.54119 -65.29528,24.4757 l -4.6009,-4.01241 -2.67494,-2.0062 14.41793,-10.56602 q 16.31713,-10.69976 25.11768,-11.50224 -14.92616,0.93623 -33.16925,6.28611 l -15.30066,5.21613 6.39311,-10.03102 4.84164,-2.2737 13.3747,-4.41365 q 22.84399,-5.617374 45.55423,-1.203723 -8.29232,-6.286109 -22.33575,-7.757326 -12.49197,-1.33747 -20.40979,1.738711 5.61737,-5.082386 12.89321,-8.292314 l 6.12561,-2.006205 z"
     id="path19"
     style="stroke-width:0.267494" />
  <path
     fill-rule="evenodd"
     class="b"
     d="m 451.98461,362.69512 q -11.55574,6.68735 -22.84399,8.93429 -22.65674,5.43013 -55.13051,9.01455 -34.88122,3.82517 -71.55464,4.3869 -88.99526,1.36422 -148.05793,-16.12988 -35.04172,-12.83972 -43.94927,-39.82986 -7.65033,-23.37898 4.5474,-56.46798 10.24502,-27.87288 33.6775,-60.40015 19.28631,-26.8564 43.62827,-51.76009 22.57649,-23.13823 48.8979,-41.19407 25.09094,-17.28012 49.80738,-27.444889 l -3.77166,4.01241 Q 196.2871,167.79899 169.05621,229.5366 q -11.68949,26.53541 -10.29852,48.92465 1.25722,20.54354 13.18745,35.52321 14.87267,19.36656 61.06888,29.55808 43.22703,9.60304 97.20732,7.89108 55.29101,-1.79221 97.42132,-14.79242 46.5172,-14.28418 61.55037,-38.19814 4.52065,24.90369 -16.42413,47.66743 -9.01455,9.73678 -20.78429,16.58463 z"
     id="path20"
     style="stroke-width:0.267494" />
  <path
     fill-rule="evenodd"
     d="m 739.62091,205.80988 q -15.80889,27.0169 -40.1776,50.55637 -28.16712,27.31114 -60.96188,42.95954 -38.14465,18.05584 -78.1885,18.32334 -16.69162,0.26749 -27.92637,-21.39952 -3.45067,-6.68735 -5.99187,-14.84592 l -1.79221,-6.68735 3.71817,4.01241 q 4.84164,4.68114 9.92403,8.15857 16.71837,11.101 31.1363,5.88486 12.25122,-4.01241 16.45088,-17.25336 4.6009,-14.60517 -4.97539,-32.12603 -3.82516,-7.48983 -33.91824,-18.85833 -31.37704,-11.76973 -73.98884,-20.86453 -48.57691,-10.45901 -95.14761,-13.53519 -54.08729,-3.61117 -96.93983,3.61116 -19.76781,3.07619 -32.76801,7.0886 -12.25123,3.77166 -19.76781,8.58655 -7.91782,5.21614 -15.30066,12.83971 -8.42606,8.69356 -13.77594,18.1896 -1.52471,-4.68115 5.21613,-20.86454 6.63386,-15.91589 10.96726,-19.42006 l 8.42606,-4.01241 15.30066,-6.28611 q 23.72671,-10.16477 40.31134,-22.87074 14.79242,-11.23474 43.73527,-45.90197 l 19.76781,-23.405721 q 9.84378,-10.967254 15.19366,-14.310929 7.27583,-4.681145 39.02737,-15.006414 37.10142,-11.903483 76.39629,-20.730785 112.24048,-25.010689 164.7763,-7.222338 56.38774,18.992074 90.70722,60.480397 14.15043,17.11961 21.29252,34.50672 6.63385,16.47763 5.34988,28.64861 -1.52472,16.85212 -16.07639,41.75581 z"
     id="path21"
     style="stroke-width:0.267494" />
  <path
     fill-rule="evenodd"
     class="f"
     d="m 734.40478,200.29951 q -12.89321,25.03744 -33.6775,46.5707 -24.74319,26.10742 -56.38773,42.2908 -36.96767,19.12583 -80.32845,23.00449 -13.5352,0.80248 -23.99421,-11.63599 -3.18318,-3.87866 -5.72437,-8.69356 l -1.92596,-3.87866 3.31693,2.13995 q 4.19965,2.5412 8.5598,4.41365 14.28418,6.01862 25.62593,3.20993 7.51658,-2.2737 12.86646,-8.69355 4.97539,-6.15236 7.03509,-14.71217 4.57415,-18.61759 -4.97539,-35.46971 -3.95891,-7.35608 -33.41,-18.59083 -31.1363,-11.90348 -72.70487,-21.29252 -47.58718,-10.56602 -92.84716,-13.90969 -52.93707,-3.87866 -94.53238,3.07618 l -33.91824,6.15236 q -14.79242,3.47742 -21.29253,7.75733 l -14.55167,10.19152 q -8.15857,6.95484 -13.00021,15.6484 1.01648,-6.5536 5.10914,-14.31093 4.06591,-7.75733 8.02482,-10.994 l 8.6668,-4.14616 15.7019,-6.68735 q 24.34196,-10.83351 40.41834,-23.13823 14.41793,-10.83351 42.6118,-44.16326 l 19.12582,-22.4695 q 9.57629,-10.699757 14.65867,-13.909685 7.14209,-4.547398 37.87715,-14.71217 36.24544,-11.930233 74.36333,-20.623788 109.05731,-25.144436 160.20216,-7.891073 54.46178,18.457086 86.8553,58.474186 13.26771,16.45088 19.90156,33.30301 6.12561,15.80889 4.70789,27.71237 -1.15022,14.71217 -12.35822,35.97795 z"
     id="path22"
     style="stroke-width:0.267494" />
  <path
     fill-rule="evenodd"
     class="k"
     d="M 662.20815,104.37616 Q 638.85592,78.696735 599.82855,64.894044 562.72713,51.786838 497.94008,60.079152 q -73.85509,9.36229 -151.90984,44.163258 11.34174,-12.572216 16.82537,-16.183385 7.14209,-4.547398 37.87715,-14.71217 36.24544,-11.930233 74.36333,-20.623788 109.05731,-25.144436 160.20216,-7.891073 54.46178,18.457086 86.8553,58.474186 13.26771,16.45088 19.90156,33.30301 6.12561,15.80889 4.70789,27.71237 -0.64198,9.0948 -5.72437,21.80077 -5.61737,14.17718 -15.05991,28.78235 -23.08474,36.11169 -58.66144,60.61414 13.50845,-23.29873 19.12582,-49.64689 6.12562,-29.31734 2.03296,-60.48039 -2.03296,-34.39973 -26.26791,-61.01538 z"
     id="path23"
     style="stroke-width:0.267494" />
  <path
     fill-rule="evenodd"
     d="m 376.39081,101.70122 -10.08453,0.53499 q -0.37449,-2.541196 3.45068,-5.48363 3.55767,-2.67494 9.04129,-4.547398 5.61738,-2.006205 10.21827,-2.139952 4.97539,-0.133747 6.50011,2.139952 3.95891,5.082386 0.50824,10.031028 -3.18318,4.54739 -7.51658,4.2799 -2.80869,-0.13375 -0.90948,-3.87866 1.92595,-3.878665 0.64198,-4.279906 z"
     id="path24"
     style="stroke-width:0.267494" />
</svg>
